<svg data-v-442f74fa="" version="1.0" xmlns="http://www.w3.org/2000/svg" xmlns:xlink="http://www.w3.org/1999/xlink" width="100%" height="100%" viewBox="0 0 340.000000 250.000000" preserveAspectRatio="xMidYMid meet" color-interpolation-filters="sRGB" style="margin: auto;"><rect data-v-442f74fa="" x="0" y="0" width="100%" height="100%" fill="#102750" fill-opacity="1" class="background"></rect> <rect data-v-442f74fa="" x="0" y="0" width="100%" height="100%" fill="url(#watermark)" fill-opacity="1" class="watermarklayer"></rect> <g data-v-442f74fa="" class="iconmbgsvg" transform="translate(95,65.05802536010742)"><g fill="#f6b067" hollow-target="textFill" mask="url(#30e086ac-a9e9-4f94-9987-09ba8ca5172d)"><g><g><rect fill="#f6b067" fill-opacity="0" stroke-width="2" x="0" y="0" width="150" height="119.88395233414056" class="image-rect"></rect> <svg filter="url(#colors225159534)" x="0" y="0" width="150" height="119.88395233414056" filtersec="colorsf7443545549" class="image-svg-svg primary"><svg xmlns="http://www.w3.org/2000/svg" xmlns:xlink="http://www.w3.org/1999/xlink" version="1.1" x="0px" y="0px" viewBox="0 0.00000286102294921875 98 78.3239974975586" enable-background="new 0 0 98 78.324" xml:space="preserve"><g><path d="M95.17,9.519c0,17.125,0,42.82,0,51.809c-13.105,0-40.754,4.449-46.171,13.154c-5.422-8.705-33.063-13.154-46.174-13.154   c0-8.988,0-34.685,0-51.809C1.812,9.481,0.86,9.459,0,9.459V66c13.909,0,43.248,4.169,48.999,12.324C54.751,70.169,84.084,66,98,66   V9.459C97.138,9.459,96.184,9.481,95.17,9.519z"></path><path d="M48.509,72.521c0-12.215,0-46.947,0-59.541C42.66,4.199,15.66,0.001,4.409,0.001c0,2.404,0,5.268,0,8.425   c0,16.896,0,42.25,0,51.119C16.93,59.544,43.33,63.931,48.509,72.521z"></path><path d="M49.489,72.521c5.175-8.59,31.583-12.977,44.1-12.977c0-8.869,0-34.222,0-51.119c0-3.157,0-6.021,0-8.425   c-11.251,0-38.249,4.198-44.1,12.979C49.489,25.573,49.489,60.306,49.489,72.521z"></path></g></svg></svg> <defs><filter id="colors225159534"><feColorMatrix type="matrix" values="0 0 0 0 0.9609375  0 0 0 0 0.6875  0 0 0 0 0.40234375  0 0 0 1 0" class="icon-fecolormatrix"></feColorMatrix></filter> <filter id="colorsf7443545549"><feColorMatrix type="matrix" values="0 0 0 0 0.99609375  0 0 0 0 0.99609375  0 0 0 0 0.99609375  0 0 0 1 0" class="icon-fecolormatrix"></feColorMatrix></filter> <filter id="colorsb1072513611"><feColorMatrix type="matrix" values="0 0 0 0 0  0 0 0 0 0  0 0 0 0 0  0 0 0 1 0" class="icon-fecolormatrix"></feColorMatrix></filter></defs></g></g> <g transform="translate(30.195999145507812,22.906681060791016)"><g data-gra="path-name" fill-rule="" class="tp-name" transform="translate(0,0)"><g transform="scale(1)"><g><path d="M39.29-51.30L39.29-51.30Q39.44-51.22 39.56-51.03Q39.67-50.84 39.71-50.54Q39.75-50.24 39.60-49.86L39.60-49.86Q37.62-45.45 34.09-35.64Q30.55-25.84 26.98-15.24Q23.41-4.64 21.28 2.13L21.28 2.13Q20.52 2.36 19.49 2.09Q18.47 1.82 17.52 1.29Q16.57 0.76 16.04 0.15L16.04 0.15Q15.28-0.76 15.54-4.90Q15.81-9.04 16.72-15.12Q17.63-21.20 18.77-27.97L18.77-27.97Q17.25-24.17 16.00-21.32Q14.74-18.47 13.60-16.19L13.60-16.19Q11.93-12.77 10.41-9.04Q8.89-5.32 7.22 0.53L7.22 0.53Q7.22 0.53 6.50 0.46Q5.78 0.38 4.71 0.15Q3.65-0.08 2.55-0.46Q1.44-0.84 0.68-1.29L0.68-1.29Q-0.08-1.98 0.11-6.23Q0.30-10.49 1.10-16.87Q1.90-23.26 3.00-30.25Q4.10-37.24 5.09-43.32L5.09-43.32Q5.85-48.03 6.38-51.41Q6.92-54.80 6.99-56.09L6.99-56.09Q7.22-56.70 8.17-56.62Q9.12-56.54 10.34-56.05Q11.55-55.56 12.58-54.95Q13.60-54.34 13.98-53.81L13.98-53.81Q14.06-53.73 14.17-53.43Q14.29-53.12 14.40-52.78Q14.52-52.44 14.52-52.21L14.52-52.21Q14.36-48.72 13.64-43.09Q12.92-37.47 12.01-31.24L12.01-31.24Q11.17-25.69 10.56-20.82Q9.96-15.96 9.73-12.84L9.73-12.84Q11.86-16.72 13.57-20.18Q15.28-23.64 16.87-27.97Q18.47-32.30 20.29-38.61L20.29-38.61Q21.58-39.06 22.76-38.72Q23.94-38.38 24.78-37.70Q25.61-37.01 25.84-36.40L25.84-36.40Q26.45-34.58 25.76-28.04Q25.08-21.51 23.48-11.55L23.48-11.55Q25.54-17.78 28.46-26.14Q31.39-34.50 34.09-41.57Q36.78-48.64 38.08-51.07L38.08-51.07Q38.46-51.45 38.76-51.45Q39.06-51.45 39.29-51.30ZM47.12-47.35L47.12-47.35Q47.12-47.35 47.84-47.42Q48.56-47.50 49.40-47.50Q50.24-47.50 51.00-47.35Q51.76-47.20 51.91-46.74L51.91-46.74Q51.98-46.21 51.45-44.12Q50.92-42.03 50.24-39.48Q49.55-36.94 48.98-35.04Q48.41-33.14 48.41-33.14L48.41-33.14Q48.41-33.14 48.07-33.10Q47.73-33.06 47.16-33.10Q46.59-33.14 45.90-33.21L45.90-33.21Q45.45-33.36 45.45-34.81Q45.45-36.25 45.71-38.34Q45.98-40.43 46.28-42.48Q46.59-44.54 46.85-45.94Q47.12-47.35 47.12-47.35ZM65.06-1.75L65.06-1.75Q64.07-2.89 64.41-4.83Q64.75-6.76 65.85-9.12Q66.96-11.48 68.25-13.64Q69.54-15.81 70.53-17.40L70.53-17.40Q70.91-17.94 71.21-18.39L71.21-18.39Q71.06-18.54 70.83-18.70L70.83-18.70Q70.38-19.15 69.69-19.61L69.69-19.61Q66.27-21.96 64.56-25.35Q62.85-28.73 62.59-32.64Q62.32-36.56 63.35-40.43Q64.37-44.31 66.46-47.69Q68.55-51.07 71.55-53.39Q74.56-55.71 78.28-56.54L78.28-56.54Q82.16-57.30 84.66-56.39Q87.17-55.48 88.39-52.93Q89.60-50.39 89.68-46.28L89.68-46.28Q89.68-43.70 88.77-41.88Q87.86-40.05 86.53-39.33Q85.20-38.61 84.02-39.41Q82.84-40.20 82.23-42.79L82.23-42.79Q82.08-43.62 82.16-44.00Q82.23-44.38 82.61-44.61L82.61-44.61Q82.99-44.69 83.26-44.35Q83.52-44.00 83.83-43.40L83.83-43.40Q84.44-41.12 85.16-40.74Q85.88-40.36 86.60-41.23Q87.32-42.10 87.70-43.62Q88.08-45.14 88.01-46.82L88.01-46.82Q87.70-50.31 86.37-51.60Q85.04-52.90 83.07-52.48Q81.09-52.06 78.93-50.24Q76.76-48.41 74.86-45.68Q72.96-42.94 71.74-39.63Q70.53-36.33 70.41-32.83Q70.30-29.34 71.78-26.14Q73.26-22.95 76.76-20.37L76.76-20.37Q79.88-18.01 81.09-15.05Q82.31-12.08 81.55-8.97L81.55-8.97Q80.86-6.08 79.31-3.95Q77.75-1.82 76.04-0.57Q74.33 0.68 73.19 0.76L73.19 0.76Q71.82 0.84 70.15 0.46Q68.48 0.08 67.07-0.49Q65.66-1.06 65.06-1.75ZM73.72-12.39L73.72-12.39Q73.80-13.45 73.53-14.59Q73.26-15.73 72.50-16.87L72.50-16.87Q71.59-15.43 70.30-13.30Q69.01-11.17 67.94-8.93Q66.88-6.69 66.46-4.94Q66.04-3.19 66.88-2.51L66.88-2.51Q67.49-1.90 68.55-2.51Q69.62-3.12 70.72-4.60Q71.82-6.08 72.66-8.09Q73.49-10.11 73.72-12.39Z" transform="translate(-0.11399999999999999, 56.889454545454534)"></path></g> <!----> <!----> <!----> <!----> <!----> <!----> <!----></g></g> <g data-gra="path-slogan" fill-rule="" class="tp-slogan" fill="#f6b067" transform="translate(5,66.12166976928711)"><rect x="0" height="1" y="3.9750003814697266" width="19.95400047302246"></rect> <rect height="1" y="3.9750003814697266" width="19.95400047302246" x="59.654001235961914"></rect> <g transform="translate(22.95400047302246,0)"><g transform="scale(1)"><path d="M4.13-7.64L2.06-7.64L2.06-4.97L4.13-4.97Q5.95-4.92 5.91-6.38L5.91-6.38Q5.91-7.64 4.13-7.64L4.13-7.64ZM4.59 0L0.89 0L0.89-8.58L4.69-8.58Q6.98-8.48 7.08-6.42L7.08-6.42Q7.08-5.16 5.95-4.64L5.95-4.64Q7.55-4.08 7.55-2.53L7.55-2.53Q7.41-0.09 4.59 0L4.59 0ZM4.31-3.98L2.06-3.98L2.06-0.98L4.55-0.98Q6.33-1.03 6.38-2.53L6.38-2.53Q6.38-3.98 4.31-3.98L4.31-3.98ZM15.66-4.27L15.66-4.27Q15.47-7.64 12.66-7.83L12.66-7.83Q9.80-7.69 9.66-4.27L9.66-4.27Q9.80-0.94 12.66-0.80L12.66-0.80Q15.47-0.98 15.66-4.27ZM16.83-4.27L16.83-4.27Q16.55 0 12.66 0.14L12.66 0.14Q8.72 0 8.44-4.27L8.44-4.27Q8.67-8.72 12.66-8.81L12.66-8.81Q16.55-8.67 16.83-4.27ZM24.98-4.27L24.98-4.27Q24.80-7.64 21.98-7.83L21.98-7.83Q19.13-7.69 18.98-4.27L18.98-4.27Q19.13-0.94 21.98-0.80L21.98-0.80Q24.80-0.98 24.98-4.27ZM26.16-4.27L26.16-4.27Q25.88 0 21.98 0.14L21.98 0.14Q18.05 0 17.77-4.27L17.77-4.27Q18-8.72 21.98-8.81L21.98-8.81Q25.88-8.67 26.16-4.27ZM30.05-4.31L28.69-3.05L28.69 0L27.52 0L27.52-8.58L28.69-8.58L28.69-4.41L32.86-8.58L34.50-8.58L30.89-5.11L34.59 0L33.05 0L30.05-4.31Z" transform="translate(-0.890625, 8.8125)"></path></g></g></g></g></g></g><mask id="30e086ac-a9e9-4f94-9987-09ba8ca5172d"><g fill="white"><g><rect fill-opacity="0" stroke-width="2" x="0" y="0" width="150" height="119.88395233414056" class="image-rect"></rect> <svg x="0" y="0" width="150" height="119.88395233414056" class="image-svg-svg primary" filter="url(#colorsf7443545549)"><svg xmlns="http://www.w3.org/2000/svg" xmlns:xlink="http://www.w3.org/1999/xlink" version="1.1" x="0px" y="0px" viewBox="0 0.00000286102294921875 98 78.3239974975586" enable-background="new 0 0 98 78.324" xml:space="preserve"><g><path d="M95.17,9.519c0,17.125,0,42.82,0,51.809c-13.105,0-40.754,4.449-46.171,13.154c-5.422-8.705-33.063-13.154-46.174-13.154   c0-8.988,0-34.685,0-51.809C1.812,9.481,0.86,9.459,0,9.459V66c13.909,0,43.248,4.169,48.999,12.324C54.751,70.169,84.084,66,98,66   V9.459C97.138,9.459,96.184,9.481,95.17,9.519z"></path><path d="M48.509,72.521c0-12.215,0-46.947,0-59.541C42.66,4.199,15.66,0.001,4.409,0.001c0,2.404,0,5.268,0,8.425   c0,16.896,0,42.25,0,51.119C16.93,59.544,43.33,63.931,48.509,72.521z"></path><path d="M49.489,72.521c5.175-8.59,31.583-12.977,44.1-12.977c0-8.869,0-34.222,0-51.119c0-3.157,0-6.021,0-8.425   c-11.251,0-38.249,4.198-44.1,12.979C49.489,25.573,49.489,60.306,49.489,72.521z"></path></g></svg></svg> <defs>  </defs></g></g> <g transform="translate(30.195999145507812,22.906681060791016)" fill="black"><g data-gra="path-name" fill-rule="" class="tp-name" transform="translate(0,0)"><g transform="scale(1)"><g><path d="M39.29-51.30L39.29-51.30Q39.44-51.22 39.56-51.03Q39.67-50.84 39.71-50.54Q39.75-50.24 39.60-49.86L39.60-49.86Q37.62-45.45 34.09-35.64Q30.55-25.84 26.98-15.24Q23.41-4.64 21.28 2.13L21.28 2.13Q20.52 2.36 19.49 2.09Q18.47 1.82 17.52 1.29Q16.57 0.76 16.04 0.15L16.04 0.15Q15.28-0.76 15.54-4.90Q15.81-9.04 16.72-15.12Q17.63-21.20 18.77-27.97L18.77-27.97Q17.25-24.17 16.00-21.32Q14.74-18.47 13.60-16.19L13.60-16.19Q11.93-12.77 10.41-9.04Q8.89-5.32 7.22 0.53L7.22 0.53Q7.22 0.53 6.50 0.46Q5.78 0.38 4.71 0.15Q3.65-0.08 2.55-0.46Q1.44-0.84 0.68-1.29L0.68-1.29Q-0.08-1.98 0.11-6.23Q0.30-10.49 1.10-16.87Q1.90-23.26 3.00-30.25Q4.10-37.24 5.09-43.32L5.09-43.32Q5.85-48.03 6.38-51.41Q6.92-54.80 6.99-56.09L6.99-56.09Q7.22-56.70 8.17-56.62Q9.12-56.54 10.34-56.05Q11.55-55.56 12.58-54.95Q13.60-54.34 13.98-53.81L13.98-53.81Q14.06-53.73 14.17-53.43Q14.29-53.12 14.40-52.78Q14.52-52.44 14.52-52.21L14.52-52.21Q14.36-48.72 13.64-43.09Q12.92-37.47 12.01-31.24L12.01-31.24Q11.17-25.69 10.56-20.82Q9.96-15.96 9.73-12.84L9.73-12.84Q11.86-16.72 13.57-20.18Q15.28-23.64 16.87-27.97Q18.47-32.30 20.29-38.61L20.29-38.61Q21.58-39.06 22.76-38.72Q23.94-38.38 24.78-37.70Q25.61-37.01 25.84-36.40L25.84-36.40Q26.45-34.58 25.76-28.04Q25.08-21.51 23.48-11.55L23.48-11.55Q25.54-17.78 28.46-26.14Q31.39-34.50 34.09-41.57Q36.78-48.64 38.08-51.07L38.08-51.07Q38.46-51.45 38.76-51.45Q39.06-51.45 39.29-51.30ZM47.12-47.35L47.12-47.35Q47.12-47.35 47.84-47.42Q48.56-47.50 49.40-47.50Q50.24-47.50 51.00-47.35Q51.76-47.20 51.91-46.74L51.91-46.74Q51.98-46.21 51.45-44.12Q50.92-42.03 50.24-39.48Q49.55-36.94 48.98-35.04Q48.41-33.14 48.41-33.14L48.41-33.14Q48.41-33.14 48.07-33.10Q47.73-33.06 47.16-33.10Q46.59-33.14 45.90-33.21L45.90-33.21Q45.45-33.36 45.45-34.81Q45.45-36.25 45.71-38.34Q45.98-40.43 46.28-42.48Q46.59-44.54 46.85-45.94Q47.12-47.35 47.12-47.35ZM65.06-1.75L65.06-1.75Q64.07-2.89 64.41-4.83Q64.75-6.76 65.85-9.12Q66.96-11.48 68.25-13.64Q69.54-15.81 70.53-17.40L70.53-17.40Q70.91-17.94 71.21-18.39L71.21-18.39Q71.06-18.54 70.83-18.70L70.83-18.70Q70.38-19.15 69.69-19.61L69.69-19.61Q66.27-21.96 64.56-25.35Q62.85-28.73 62.59-32.64Q62.32-36.56 63.35-40.43Q64.37-44.31 66.46-47.69Q68.55-51.07 71.55-53.39Q74.56-55.71 78.28-56.54L78.28-56.54Q82.16-57.30 84.66-56.39Q87.17-55.48 88.39-52.93Q89.60-50.39 89.68-46.28L89.68-46.28Q89.68-43.70 88.77-41.88Q87.86-40.05 86.53-39.33Q85.20-38.61 84.02-39.41Q82.84-40.20 82.23-42.79L82.23-42.79Q82.08-43.62 82.16-44.00Q82.23-44.38 82.61-44.61L82.61-44.61Q82.99-44.69 83.26-44.35Q83.52-44.00 83.83-43.40L83.83-43.40Q84.44-41.12 85.16-40.74Q85.88-40.36 86.60-41.23Q87.32-42.10 87.70-43.62Q88.08-45.14 88.01-46.82L88.01-46.82Q87.70-50.31 86.37-51.60Q85.04-52.90 83.07-52.48Q81.09-52.06 78.93-50.24Q76.76-48.41 74.86-45.68Q72.96-42.94 71.74-39.63Q70.53-36.33 70.41-32.83Q70.30-29.34 71.78-26.14Q73.26-22.95 76.76-20.37L76.76-20.37Q79.88-18.01 81.09-15.05Q82.31-12.08 81.55-8.97L81.55-8.97Q80.86-6.08 79.31-3.95Q77.75-1.82 76.04-0.57Q74.33 0.68 73.19 0.76L73.19 0.76Q71.82 0.84 70.15 0.46Q68.48 0.08 67.07-0.49Q65.66-1.06 65.06-1.75ZM73.72-12.39L73.72-12.39Q73.80-13.45 73.53-14.59Q73.26-15.73 72.50-16.87L72.50-16.87Q71.59-15.43 70.30-13.30Q69.01-11.17 67.94-8.93Q66.88-6.69 66.46-4.94Q66.04-3.19 66.88-2.51L66.88-2.51Q67.49-1.90 68.55-2.51Q69.62-3.12 70.72-4.60Q71.82-6.08 72.66-8.09Q73.49-10.11 73.72-12.39Z" transform="translate(-0.11399999999999999, 56.889454545454534)"></path></g>       </g></g> <g data-gra="path-slogan" fill-rule="" class="tp-slogan" transform="translate(5,66.12166976928711)"><rect x="0" height="1" y="3.9750003814697266" width="19.95400047302246"></rect> <rect height="1" y="3.9750003814697266" width="19.95400047302246" x="59.654001235961914"></rect> <g transform="translate(22.95400047302246,0)"><g transform="scale(1)"><path d="M4.13-7.64L2.06-7.64L2.06-4.97L4.13-4.97Q5.95-4.92 5.91-6.38L5.91-6.38Q5.91-7.64 4.13-7.64L4.13-7.64ZM4.59 0L0.89 0L0.89-8.58L4.69-8.58Q6.98-8.48 7.08-6.42L7.08-6.42Q7.08-5.16 5.95-4.64L5.95-4.64Q7.55-4.08 7.55-2.53L7.55-2.53Q7.41-0.09 4.59 0L4.59 0ZM4.31-3.98L2.06-3.98L2.06-0.98L4.55-0.98Q6.33-1.03 6.38-2.53L6.38-2.53Q6.38-3.98 4.31-3.98L4.31-3.98ZM15.66-4.27L15.66-4.27Q15.47-7.64 12.66-7.83L12.66-7.83Q9.80-7.69 9.66-4.27L9.66-4.27Q9.80-0.94 12.66-0.80L12.66-0.80Q15.47-0.98 15.66-4.27ZM16.83-4.27L16.83-4.27Q16.55 0 12.66 0.14L12.66 0.14Q8.72 0 8.44-4.27L8.44-4.27Q8.67-8.72 12.66-8.81L12.66-8.81Q16.55-8.67 16.83-4.27ZM24.98-4.27L24.98-4.27Q24.80-7.64 21.98-7.83L21.98-7.83Q19.13-7.69 18.98-4.27L18.98-4.27Q19.13-0.94 21.98-0.80L21.98-0.80Q24.80-0.98 24.98-4.27ZM26.16-4.27L26.16-4.27Q25.88 0 21.98 0.14L21.98 0.14Q18.05 0 17.77-4.27L17.77-4.27Q18-8.72 21.98-8.81L21.98-8.81Q25.88-8.67 26.16-4.27ZM30.05-4.31L28.69-3.05L28.69 0L27.52 0L27.52-8.58L28.69-8.58L28.69-4.41L32.86-8.58L34.50-8.58L30.89-5.11L34.59 0L33.05 0L30.05-4.31Z" transform="translate(-0.890625, 8.8125)"></path></g></g></g></g></mask><defs v-gra="od"></defs></svg>